<svg xmlns="http://www.w3.org/2000/svg" viewBox="0 0 2154.19 504.77"><defs><style>.cls-1{fill:#da0404;}</style></defs><g id="Calque_2" data-name="Calque 2"><g id="Calque_1-2" data-name="Calque 1"><g id="Groupe_1602" data-name="Groupe 1602"><g id="Groupe_1597" data-name="Groupe 1597"><g id="Groupe_1596" data-name="Groupe 1596"><path id="Tracé_2551" data-name="Tracé 2551" d="M601.77,205.45V97h33.36a50.63,50.63,0,0,1,25.58,6.44,44.84,44.84,0,0,1,17.61,18.32,56.42,56.42,0,0,1,6.33,27v5a56.59,56.59,0,0,1-6.22,26.89A44.63,44.63,0,0,1,660.9,198.9a51.1,51.1,0,0,1-25.54,6.55Zm22.34-90.33v72.39h10.8q13.11,0,20-8.57t7.07-24.5v-5.73q0-16.53-6.85-25.05t-20-8.53Z"/><path id="Tracé_2552" data-name="Tracé 2552" d="M724.64,205.45H702.3V97h22.34Z"/><path id="Tracé_2553" data-name="Tracé 2553" d="M785.48,165.76H767.69v39.69H745.35V97h40.28q19.22,0,29.63,8.57t10.42,24.2a33.32,33.32,0,0,1-4.8,18.5,32.74,32.74,0,0,1-14.56,11.81l23.46,44.3v1h-24Zm-17.79-18.1h18a18.44,18.44,0,0,0,13-4.28,15.29,15.29,0,0,0,4.61-11.8A16.36,16.36,0,0,0,799,119.52q-4.37-4.39-13.37-4.4H767.69Z"/><path id="Tracé_2554" data-name="Tracé 2554" d="M907.91,158.46H865v29h50.34v17.95H842.67V97H915.2v18.1H865V141h42.9Z"/><path id="Tracé_2555" data-name="Tracé 2555" d="M1013.58,169.33q-1.27,17.5-12.92,27.56t-30.72,10.05q-20.85,0-32.8-14t-11.95-38.54v-6.63a64.81,64.81,0,0,1,5.51-27.55,41.26,41.26,0,0,1,15.75-18.28,44.06,44.06,0,0,1,23.79-6.37q18.76,0,30.23,10t13.25,28.23H991.38q-.81-10.5-5.84-15.23t-15.3-4.73q-11.18,0-16.73,8t-5.69,24.84v8.19q0,17.58,5.32,25.69t16.8,8.12q10.35,0,15.45-4.73t5.84-14.63Z"/><path id="Tracé_2556" data-name="Tracé 2556" d="M1107.7,115.12h-33.21v90.33h-22.34V115.12h-32.77V97h88.32Z"/><path id="Tracé_2557" data-name="Tracé 2557" d="M1144.19,205.45h-22.34V97h22.34Z"/><path id="Tracé_2558" data-name="Tracé 2558" d="M1254,153.69a65.54,65.54,0,0,1-5.66,28.08,42.73,42.73,0,0,1-16.2,18.62,47.87,47.87,0,0,1-48.22.07,43.11,43.11,0,0,1-16.39-18.5,63.67,63.67,0,0,1-5.88-27.67v-5.36a65.18,65.18,0,0,1,5.77-28.19,42.92,42.92,0,0,1,16.31-18.69,47.76,47.76,0,0,1,48.18,0,42.92,42.92,0,0,1,16.31,18.69,64.8,64.8,0,0,1,5.77,28.11Zm-22.64-4.91q0-17.06-6.1-25.92a21.57,21.57,0,0,0-34.78-.12q-6.11,8.76-6.18,25.66v5.28q0,16.62,6.1,25.77a21.38,21.38,0,0,0,34.85.32q6-8.82,6.1-25.72Z"/><path id="Tracé_2559" data-name="Tracé 2559" d="M1358.36,205.45H1336l-43.49-71.34v71.34h-22.34V97h22.34l43.57,71.49V97h22.26Z"/><path id="Tracé_2560" data-name="Tracé 2560" d="M1501.63,191.75A38.82,38.82,0,0,1,1484.58,203a71.24,71.24,0,0,1-24.43,4,48.41,48.41,0,0,1-24.68-6.14A40.89,40.89,0,0,1,1419.09,183a62.67,62.67,0,0,1-5.92-27.47v-7.38a66.51,66.51,0,0,1,5.47-28.1,40.46,40.46,0,0,1,15.79-18.17,45.46,45.46,0,0,1,24.16-6.29q19.29,0,30.16,9.19t12.88,26.78h-21.74q-1.5-9.32-6.59-13.63a21,21,0,0,0-14-4.32,19.79,19.79,0,0,0-17.35,8.56q-6,8.56-6,25.47v6.92q0,17.05,6.48,25.77t19,8.71q12.57,0,17.94-5.36V165H1459V148.49h42.67Z"/><path id="Tracé_2561" data-name="Tracé 2561" d="M1585,158.46h-42.89v29h50.34v17.95h-72.68V97h72.53v18.1h-50.19V141H1585Z"/><path id="Tracé_2562" data-name="Tracé 2562" d="M1693.68,205.45h-22.34l-43.49-71.34v71.34h-22.34V97h22.34l43.57,71.49V97h22.27Z"/><path id="Tracé_2563" data-name="Tracé 2563" d="M1778.43,158.46h-42.89v29h50.34v17.95H1713.2V97h72.53v18.1h-50.19V141h42.89Z"/><path id="Tracé_2564" data-name="Tracé 2564" d="M1839.12,165.76h-17.8v39.69H1799V97h40.29q19.2,0,29.62,8.57t10.43,24.2a33.42,33.42,0,0,1-4.79,18.5A32.81,32.81,0,0,1,1860,160.1l23.46,44.3v1h-24Zm-17.8-18.1h18a18.4,18.4,0,0,0,13-4.28,15.3,15.3,0,0,0,4.62-11.8,16.36,16.36,0,0,0-4.36-12.06q-4.35-4.39-13.36-4.4h-18Z"/><path id="Tracé_2565" data-name="Tracé 2565" d="M1957.52,183.11h-39.17l-7.44,22.34h-23.75L1927.52,97h20.7l40.58,108.42h-23.74ZM1924.38,165h27.11l-13.63-40.59Z"/><path id="Tracé_2566" data-name="Tracé 2566" d="M2021.26,187.51h47.44v17.94h-69.78V97h22.34Z"/><path id="Tracé_2567" data-name="Tracé 2567" d="M2146.74,158.46h-42.89v29h50.34v17.95h-72.68V97H2154v18.1h-50.19V141h42.9Z"/><path id="Tracé_2568" data-name="Tracé 2568" d="M601.77,388.46V280h33.36a50.74,50.74,0,0,1,25.58,6.45,44.84,44.84,0,0,1,17.61,18.32,56.42,56.42,0,0,1,6.33,27v5a56.53,56.53,0,0,1-6.22,26.88,44.59,44.59,0,0,1-17.53,18.25,51.1,51.1,0,0,1-25.54,6.55Zm22.34-90.33v72.38h10.8q13.11,0,20-8.56t7.07-24.5v-5.73q0-16.55-6.85-25.06t-20-8.52Z"/><path id="Tracé_2569" data-name="Tracé 2569" d="M766.12,341.47H723.23v29h50.34v17.95H700.89V280h72.53v18.1H723.23V324h42.89Z"/><path id="Tracé_2570" data-name="Tracé 2570" d="M842.9,360a11.48,11.48,0,0,0-4.47-9.71,58.62,58.62,0,0,0-16.09-7.15A113.85,113.85,0,0,1,804,335.74q-18.47-10-18.47-26.88a26.18,26.18,0,0,1,4.95-15.69,32.32,32.32,0,0,1,14.23-10.76,53.55,53.55,0,0,1,20.81-3.87,48.84,48.84,0,0,1,20.7,4.2,33,33,0,0,1,14.11,11.88,31.13,31.13,0,0,1,5,17.43H843a14.63,14.63,0,0,0-4.68-11.58,19.34,19.34,0,0,0-13.19-4.14,20.67,20.67,0,0,0-12.73,3.46,10.91,10.91,0,0,0-4.54,9.13,10.47,10.47,0,0,0,5.32,8.86,60.41,60.41,0,0,0,15.68,6.7q19.06,5.73,27.78,14.22a28.31,28.31,0,0,1,8.71,21.15,26.08,26.08,0,0,1-10.64,22.08q-10.67,8-28.67,8a55.28,55.28,0,0,1-22.79-4.57,36,36,0,0,1-15.68-12.55,32.07,32.07,0,0,1-5.4-18.47h22.41q0,18,21.45,18a20.83,20.83,0,0,0,12.43-3.24A10.55,10.55,0,0,0,842.9,360Z"/><path id="Tracé_2571" data-name="Tracé 2571" d="M942.16,388.46H919.82V280h22.34Z"/><path id="Tracé_2572" data-name="Tracé 2572" d="M992.05,280l27.86,78.64,27.7-78.64H1077V388.46h-22.42V358.83l2.24-51.15-29.27,80.79h-15.34L983,307.75l2.23,51.08v29.63H962.86V280Z"/><path id="Tracé_2573" data-name="Tracé 2573" d="M1118.8,350.26v38.2h-22.34V280h42.3a49.09,49.09,0,0,1,21.48,4.47,32.9,32.9,0,0,1,14.26,12.7,35.38,35.38,0,0,1,5,18.73q0,15.94-10.91,25.14t-30.19,9.19Zm0-18.1h20q8.87,0,13.51-4.17a15.15,15.15,0,0,0,4.65-11.91,17.88,17.88,0,0,0-4.69-12.88,17.51,17.51,0,0,0-13-5.07H1118.8Z"/><path id="Tracé_2574" data-name="Tracé 2574" d="M1283.89,336.71a65.5,65.5,0,0,1-5.67,28.07A42.61,42.61,0,0,1,1262,383.4a47.85,47.85,0,0,1-48.21.07,43.05,43.05,0,0,1-16.39-18.5,63.67,63.67,0,0,1-5.88-27.67v-5.36a65.18,65.18,0,0,1,5.77-28.19,42.92,42.92,0,0,1,16.31-18.69,47.83,47.83,0,0,1,48.18,0,43,43,0,0,1,16.31,18.69,65.08,65.08,0,0,1,5.77,28.1Zm-22.65-4.92q0-17.06-6.1-25.92a21.57,21.57,0,0,0-34.78-.12q-6.09,8.76-6.17,25.66v5.29q0,16.6,6.1,25.76a21.38,21.38,0,0,0,34.84.33q6-8.84,6.1-25.73Z"/><path id="Tracé_2575" data-name="Tracé 2575" d="M1375.41,298.13H1342.2v90.33h-22.34V298.13h-32.77V280h88.32Z"/><path id="Tracé_2576" data-name="Tracé 2576" d="M1443.18,360a11.48,11.48,0,0,0-4.47-9.71,58.56,58.56,0,0,0-16.08-7.15,114,114,0,0,1-18.4-7.41q-18.46-10-18.47-26.88a26.19,26.19,0,0,1,5-15.69,32.23,32.23,0,0,1,14.22-10.76,53.57,53.57,0,0,1,20.82-3.87,48.8,48.8,0,0,1,20.69,4.2,33,33,0,0,1,14.11,11.88,31,31,0,0,1,5,17.43h-22.34a14.59,14.59,0,0,0-4.69-11.58,19.32,19.32,0,0,0-13.18-4.14,20.63,20.63,0,0,0-12.74,3.46,11,11,0,0,0-4.54,9.13,10.46,10.46,0,0,0,5.33,8.86,60.07,60.07,0,0,0,15.68,6.7q19.07,5.73,27.77,14.22a28.32,28.32,0,0,1,8.72,21.15A26.11,26.11,0,0,1,1455,381.93q-10.65,8-28.67,8a55.28,55.28,0,0,1-22.79-4.57,36,36,0,0,1-15.68-12.55,32.07,32.07,0,0,1-5.4-18.47h22.41q0,18,21.45,18a20.83,20.83,0,0,0,12.43-3.24A10.55,10.55,0,0,0,1443.18,360Z"/></g></g><g id="_2x1P2r" data-name=" 2x1P2r"><g id="Groupe_1598" data-name="Groupe 1598"><g id="CONTOUR"><path id="Tracé_2577" data-name="Tracé 2577" d="M0,239.64a261.56,261.56,0,0,1,16.71-78.37C48.18,78.92,123.67,17.08,210.33,3.53c77.58-12.13,146.95,7,206.64,58,47.79,40.82,76.42,93.1,84.86,155.46,10.21,75.33-9.48,142.64-59,200.37-40,46.64-91.07,74.49-151.79,84.29-7.67,1.24-15.47,1.71-23.2,2.57a24.83,24.83,0,0,0-2.72.59H239.26c-.91-.2-1.82-.48-2.74-.59-8.77-1-17.6-1.67-26.31-3.08-86.56-14-161.4-74.88-193.2-157A260.53,260.53,0,0,1,0,264.89Zm8.72,12.49C8.55,386.45,117.24,495.5,251.56,495.78s243.64-108.27,244-242.66v-.46C495.83,118.27,387.09,9.12,252.69,8.87h-.44C117.87,8.75,8.84,117.59,8.72,252v.16Z"/><path id="Tracé_2578" data-name="Tracé 2578" d="M252.05,55.25c109.37-.6,198.53,87.54,199.19,196.9s-87.5,198.59-196.89,199.23h-.6c-109.12.33-198-87.63-198.73-196.75C54.31,145.23,142.43,56,251.84,55.25Zm1.26,8.88C148.85,64,64.06,148.56,63.92,253v.1c-.14,104.44,84.42,189.21,188.85,189.34H253c104.43.17,189.23-84.36,189.39-188.79v-.19C442.48,149,357.9,64.26,253.44,64.14h-.13Z"/></g><g id="DGI"><path id="Tracé_2579" data-name="Tracé 2579" class="cls-1" d="M194.52,160.93a16.14,16.14,0,0,0-11.37-10.62,93.71,93.71,0,0,0-10.72-2.52c-1.9-.37-2.69-1.23-2.56-3.19a61.1,61.1,0,0,0,0-6.63c-.1-1.9.62-2.74,2.55-2.53q.95,0,1.89,0c28.19,0,56.39-.32,84.57.14a334.2,334.2,0,0,1,39.21,3.15A108,108,0,0,1,342,153.59a95.92,95.92,0,0,1,36.36,42.93c20,44.28,21.38,89.25,3.7,134.53a101.67,101.67,0,0,1-47.42,54.13c-13.19,7.11-27.75,9.4-42.38,9.73-31.11.69-62.25.56-93.37.74-8.53.05-17.05-.07-25.56.06-2.51,0-3.71-.52-3.44-3.28.24-2.5-.77-5.72.46-7.35,1-1.38,4.49-1,6.88-1.29,10.88-1.38,17.05-7.23,18.93-18,.36-2.05.62-4.11.92-6.13-6.07-1.77-12.08-3-17.69-5.23-34.28-13.65-54.45-39.15-61.28-75.07A104.48,104.48,0,0,1,123,221.25c12.28-31.6,36.31-50.12,68.21-59.39Zm34.83,185.81A71.31,71.31,0,0,0,254.29,340c17.44-8.1,26.86-21.29,26.28-41-.38-13.27-5.61-20.17-18.43-23.62-2.63-.71-5.38-1-8-1.68-.79-.22-1.91-1.11-2-1.78-.23-2.46-.09-5-.09-7.53h80.47a4,4,0,0,1,.35,1.09c-.09,7.86,1.83,7.27-6.93,8.78-10.05,1.74-15.47,4.54-17.06,16.54a70,70,0,0,0-.65,8.79c-.06,17.46,0,34.93,0,52.39v4.19a53.43,53.43,0,0,0-7.8.06c-4.94.75-7.68-1.06-9.33-5.84a144.08,144.08,0,0,0-6.32-13.65,97.1,97.1,0,0,1-54.45,23.64c.5,9.11,4.81,14.46,13.39,16.88,16.53,4.67,33.09,3.86,49.57-.13a69.69,69.69,0,0,0,30.18-15.77c14.47-12.84,22.41-29.5,27.41-47.74a192,192,0,0,0,5.74-55.94A171.57,171.57,0,0,0,347,204.22c-7.91-22.33-22.65-38.2-45.25-46.51a102.7,102.7,0,0,0-44.29-5.89,44.75,44.75,0,0,0-19,5.16,61.52,61.52,0,0,0-5.18,3.76c14.43,3.62,27.55,7.91,39.11,16.51,1.63-4.09,3.16-7.66,4.45-11.32.73-2.07,1.8-3.17,4.11-2.83a9.59,9.59,0,0,0,2.83,0c2.66-.39,3.82.71,4.57,3.32,5.27,18.07,10.71,36.09,16.07,54.13.29.95.44,2,.69,3.12-3.46,1-6.55,2-9.72,2.63a4.07,4.07,0,0,1-3.24-1.39c-2.72-3.47-5-7.29-7.79-10.69-9.8-11.88-20.26-23.12-33.27-31.59a55.35,55.35,0,0,0-20.69-8c-1.48,4.47-2.43,164.85-1,172.11ZM197.22,176a45.77,45.77,0,0,0-24.49,17.48c-23,33-26.28,68.91-14.32,106.45a66.83,66.83,0,0,0,35.47,41.17c1.09.52,2.21,1,3.35,1.46Z"/><path id="Tracé_2580" data-name="Tracé 2580" class="cls-1" d="M229.88,108.94a17.36,17.36,0,1,1-17.24-17.69A17.47,17.47,0,0,1,229.88,108.94Z"/></g><g id="TEXT_DGI" data-name="TEXT DGI"><path id="Tracé_2581" data-name="Tracé 2581" d="M258.9,471c-1.28,5.47-2.65,10.92-3.79,16.42a2.86,2.86,0,0,1-3,2.75l-.38,0c-2.2,0-3.17-.7-3.57-2.9a114.05,114.05,0,0,0-4-16.17v18.58h-5.23V463a61.82,61.82,0,0,1,6.94.1c.66.08,1.52,1.27,1.72,2.09,1.25,5.1,2.34,10.24,3.49,15.36a2.63,2.63,0,0,0,1.11,1.73c1-4.33,2-8.66,3.07-13,1.68-7,1.87-7.13,9.41-5.84v26.39h-5.16V471Z"/><path id="Tracé_2582" data-name="Tracé 2582" d="M95.08,428.62l17.42-20.81c3.84,3.45,7.55,6.77,11.23,10.11a3.78,3.78,0,0,1,.68,1.05c2.52,4.61.66,10.74-4.74,15.65-4.87,4.43-10.21,5.37-14.57,2.21C101.71,434.37,98.6,431.53,95.08,428.62Zm7.46-.07c3,2.11,4.88,5.79,9.28,4.33,3.59-1.19,8-6.43,8.05-9.78,0-4.2-3.67-5.36-6.24-7.81l-11.1,13.26Z"/><path id="Tracé_2583" data-name="Tracé 2583" d="M284.13,37.89l-5.66-.8c.14-1.47.26-2.76.39-4.1a8,8,0,0,1,1.46-.2c3,.32,6.05.68,9.53,1.07-.49,4.68-1,9.21-1.45,13.81-2.23.34-4.12.66-4.06-1.7A80,80,0,0,1,275,47.13a9.08,9.08,0,0,1-4.62-1.78c-5.83-3.78-7-13.83-2.46-20.5a13.29,13.29,0,0,1,18-2.9,9.19,9.19,0,0,1,4.23,7.68c-2.5.14-4.71.77-6.32-2.24a6.3,6.3,0,0,0-10-1,12.37,12.37,0,0,0-1.93,12.7,6.62,6.62,0,0,0,6.84,3.56A5.83,5.83,0,0,0,284.13,37.89Z"/><path id="Tracé_2584" data-name="Tracé 2584" d="M325.51,450.34c7.48,0,13.27,6.8,13.34,15.77a12.86,12.86,0,0,1-13.11,12.59h-.26c-7.37,0-13.23-6.91-13.35-15.84C312,455.83,317.85,450.38,325.51,450.34Zm6.92,19.17a9,9,0,0,0-.13-6.72,30.52,30.52,0,0,0-2.39-4.87,5.93,5.93,0,0,0-7.29-2.24A5.84,5.84,0,0,0,318,462a25,25,0,0,0,3.13,9,5.79,5.79,0,0,0,7.52,2.16,6.12,6.12,0,0,0,3.77-3.65Z"/><path id="Tracé_2585" data-name="Tracé 2585" d="M414.73,121.44l-4.14-4.5c1.5-1.6,2.8-3.2,4.32-4.57a3.45,3.45,0,0,0,.26-5.67l-4-4.16-7.53,6.77-3.76-4,19.5-18c3.45,3.85,6.84,7.41,10,11.17a6.75,6.75,0,0,1,.67,8,7,7,0,0,1-7,4C420.12,114.32,417.52,117.76,414.73,121.44Zm-.08-22c1.78,1.88,3.39,3.64,5.07,5.33a2.91,2.91,0,0,0,4.09.43,3.89,3.89,0,0,0,.36-.34,3,3,0,0,0,.8-4.15,2.43,2.43,0,0,0-.24-.3c-1.53-1.94-3.27-3.72-5.05-5.71Z"/><path id="Tracé_2586" data-name="Tracé 2586" d="M207.17,32.93c1,5.55,2,11.11,3,16.94l-5.13,1c-1.59-8.68-3.14-17.1-4.67-25.45,4.56-2.27,5.34-2.1,8.35,1.51a106.36,106.36,0,0,0,10.53,11.32c-.95-5.31-1.9-10.63-2.91-16.24l5.14-1,4.67,25.59a5.73,5.73,0,0,1-8-1.31,5.87,5.87,0,0,1-.37-.59c-3.1-4.2-6.67-8-10-12Z"/><path id="Tracé_2587" data-name="Tracé 2587" d="M51.46,163c4.88-2.83,8.4,1.92,13,1.31-.3,1-.58,1.71-.76,2.48-.7,3-2.42,3.62-5.07,2.31-.66-.33-1.39-.5-2.06-.81-2.8-1.34-4.61-.47-5.63,2.39-.56,1.57-1.24,3.1-2,4.94l9.33,4.05c-.65,1.66-1.25,3.17-2,5.09l-24.5-10.08c2.06-4.88,3.85-9.47,6-13.91a6.54,6.54,0,0,1,6.7-3.86A7.22,7.22,0,0,1,51.46,163Zm-6.89,11c1-2.48,2-4.56,2.72-6.7a3.08,3.08,0,0,0-1.38-4.13,3,3,0,0,0-.49-.2,3.13,3.13,0,0,0-4.2,1.35,3.25,3.25,0,0,0-.18.43c-1,2.05-1.77,4.18-2.75,6.55Z"/><path id="Tracé_2588" data-name="Tracé 2588" d="M358,73c-3.83-.95-5.56-2.71-5.41-6.69A76.51,76.51,0,0,0,351.2,50.5c-2.58,5-5.15,9.94-7.87,15.2l-4.7-2.29,11.83-23.24c5.37,1.61,5.45,1.73,5.65,6.58a127.94,127.94,0,0,0,1.33,15.51c2.52-4.86,5-9.73,7.73-15l4.67,2.38C365.83,57.54,361.94,65.18,358,73Z"/><path id="Tracé_2589" data-name="Tracé 2589" d="M18.38,240.93c.49-4.69.74-9,1.44-13.2a8.42,8.42,0,0,1,7.8-7.52,29.57,29.57,0,0,1,11.07,1.12c5.59,1.76,7.57,5.59,7,11.48-.31,3.42-.67,6.85-1.07,10.73Zm22.05-3.35c.42-3.85,2-7.46-1.77-10.14-3-2.18-9.77-2.69-12.3-.81-3.21,2.39-2.18,5.9-2.65,9.27Z"/><path id="Tracé_2590" data-name="Tracé 2590" d="M173.16,33.3c7.26,0,13.16,6.91,13.22,15.56a12.64,12.64,0,0,1-13,12.28h-.27c-7.23,0-13-7.05-13-15.74A12.51,12.51,0,0,1,173,33.3Zm7.58,18a5.33,5.33,0,0,0-.1-4.11,40.18,40.18,0,0,0-3.3-6.55A5.79,5.79,0,0,0,170,38.72a5.87,5.87,0,0,0-4.25,6.59,24.69,24.69,0,0,0,3.49,8.53,5.64,5.64,0,0,0,7.33,1.8,7.24,7.24,0,0,0,4.15-4.33Z"/><path id="Tracé_2591" data-name="Tracé 2591" d="M126.16,452.61l13.73-23.22,17.05,10.07-2.42,4.2-12.23-7.08-2.74,4.63,11.12,6.63c-.88,1.5-1.61,2.72-2.46,4.16l-11.16-6.48-3.5,5.72,12.74,7.58L143.76,463Z"/><path id="Tracé_2592" data-name="Tracé 2592" d="M390.78,421.92c-2,1.41-3.31,3.81-6.51,2-2-1.09-6.21,1.72-6.6,4.07a2.62,2.62,0,0,0,3.7,3.07c2.57-.88,5-2.12,7.58-3.09,4.16-1.58,6.82-1,9.06,1.86A7.5,7.5,0,0,1,398,440a27.52,27.52,0,0,1-8.51,6.1c-3.31,1.51-6.54.24-9.11-2.79,1.87-1.83,3.11-4.07,6.45-2.17,2.25,1.27,7.3-2.32,7.72-5,.35-2.27-1.4-3.76-3.8-3s-4.84,2-7.28,3c-4.49,1.77-7.37,1-9.72-2.34a8,8,0,0,1,1-10.38,12.71,12.71,0,0,1,9.52-4.88A7.52,7.52,0,0,1,390.78,421.92Z"/><path id="Tracé_2593" data-name="Tracé 2593" d="M160.7,462.19c2.5.81,4.89.74,5.1,4.24.15,2.68,5.62,5.14,8.22,4.17a2.52,2.52,0,0,0,1.88-3,2.48,2.48,0,0,0-.94-1.44,71.63,71.63,0,0,0-6.05-4.53c-4.42-3.2-5.47-6.16-3.6-10.15S171,446,176,447.37c6.87,1.92,10,6.38,8.3,12.31-2.25-.67-4.79-.42-5.11-4-.21-2.47-4.79-4.54-7.17-3.72a2.58,2.58,0,0,0-1.85,3.13,2.61,2.61,0,0,0,1.16,1.56c2,1.65,4.28,3.05,6.4,4.61,4,2.93,4.95,5.74,3.37,9.42a7.8,7.8,0,0,1-9.53,4.79,26.42,26.42,0,0,1-8.47-3.85C160,469.48,159.43,466.16,160.7,462.19Z"/><path id="Tracé_2594" data-name="Tracé 2594" d="M71.14,142.83,79,130.65l4.07,2.53L72.24,150.13l-22.3-14.26c3.49-5.48,6.86-10.76,10.46-16.39L64.5,122l-7.42,11.73,4.4,2.88,7-10.66,4,2.53-6.8,10.79Z"/><path id="Tracé_2595" data-name="Tracé 2595" d="M403.59,73l-3,3.77-11-8.26c-1.07,1.35-2.09,2.61-3.3,4.14l10.12,7.78-2.83,3.8-10.19-7.63-4.05,5.15,11.53,8.87L388,94.49l-16-12.2,16-21.05Z"/><path id="Tracé_2596" data-name="Tracé 2596" d="M480.33,213.29c-1.08-4.6-2.08-8.85-3.16-13.47l-5.14,1c.9,4.23,1.74,8.19,2.65,12.5l-4.6,1c-1-4.19-1.87-8.13-2.84-12.35l-6.45,1.38c1,4.73,2,9.27,3.13,14.14l-4.64,1.08L454.88,199l25.75-5.83c1.43,6.29,2.8,12.29,4.26,18.74Z"/><path id="Tracé_2597" data-name="Tracé 2597" d="M324,57.48l-19.25-5.84,7.65-25.31L331,32c-.48,1.59-.89,2.92-1.38,4.56l-13.16-3.89c-.55,1.66-1.06,3.18-1.66,5l12.19,3.78-1.43,4.51-12.14-3.57c-.66,2.18-1.24,4-1.92,6.24l13.77,4.29C324.82,54.32,324.46,55.66,324,57.48Z"/><path id="Tracé_2598" data-name="Tracé 2598" d="M436.43,153.14c-.71-1.06-1.22-2-1.88-2.77a2.48,2.48,0,0,1-.34-3.49,2.14,2.14,0,0,1,.62-.54c2.18-1.69,1.89-3.41.28-5.3a10.27,10.27,0,0,1-1.51-2.39,3.38,3.38,0,0,0-5-2.15c-3.73,1.46-3.72-2.2-5.42-4.09a18.61,18.61,0,0,1,2.19-.83c7.56-1.73,15.17-3.29,22.69-5.23,2.69-.69,3.17,1.07,4.24,2.53a3,3,0,0,1,.22,4.27.57.57,0,0,1-.11.11c-5.12,6.24-10,12.64-15.06,19A9.23,9.23,0,0,1,436.43,153.14Zm.1-18.61L440.1,140l6-7.19-.37-.6Z"/><path id="Tracé_2599" data-name="Tracé 2599" d="M286.45,478c.5,3.27.95,6.23,1.44,9.46l-5.58.94c-1.47-8.82-2.9-17.45-4.45-26.76,5.29-.62,10.32-1.53,15.38-1.69,3.58-.11,6.22,3.46,6.56,7.65a8,8,0,0,1-6.07,9.07C291.5,477.23,289.21,477.51,286.45,478Zm-.8-4.65c3-1.08,6.64.15,8.15-3.32a4.62,4.62,0,0,0-.87-4.22c-2.55-2.25-5.45-.56-8.56,0,.44,2.55.82,4.86,1.28,7.58Z"/><path id="Tracé_2600" data-name="Tracé 2600" d="M101.26,98.12a10.21,10.21,0,0,1,1.08,12.79,11.41,11.41,0,0,1-13.25,5.42,17.53,17.53,0,0,1-11.18-10.39,11.57,11.57,0,0,1,4.27-13.69A9.88,9.88,0,0,1,94.77,92c-1.56,2.21-2.75,4.17-6.35,3.32s-6.66,3.71-5.66,7.53a13.9,13.9,0,0,0,9.45,8.48c3.68.49,7.76-3.24,6.47-6.51C97.3,101.27,99.14,99.87,101.26,98.12Z"/><path id="Tracé_2601" data-name="Tracé 2601" d="M360.55,433.59l2.28,4.29-7,3.85L366,461l-4.93,2.9-10.43-19.41-7.07,3.6-2.36-4.24Z"/><path id="Tracé_2602" data-name="Tracé 2602" d="M128.93,86.64l-4.45,3.44L111.32,72.94,105,77.65l-3-3.75,17.05-13.08,3,3.69-6.18,5Z"/><path id="Tracé_2603" data-name="Tracé 2603" d="M467.55,156.88c.78,1.88,1.4,3.39,2.15,5.23l-19.82,8.22,4.9,12-4.5,1.93c-2.4-5.84-4.7-11.43-7.14-17.33Z"/><path id="Tracé_2604" data-name="Tracé 2604" d="M219.86,460.41l5.67.69c-1.31,8.89-2.59,17.55-3.93,26.6l-5.67-.8C217.25,478,218.53,469.36,219.86,460.41Z"/><path id="Tracé_2605" data-name="Tracé 2605" d="M24.52,199.86c.51-1.93.9-3.42,1.43-5.45l25.58,6.37c-.47,1.89-.9,3.55-1.38,5.48Z"/><path id="Tracé_2606" data-name="Tracé 2606" d="M134.4,51.32l4.93-2.81,13.08,22.9-4.88,2.9Z"/></g></g></g></g></g></g></svg>