<?xml version="1.0" encoding="utf-8"?>
<!-- Generator: Adobe Illustrator 26.2.1, SVG Export Plug-In . SVG Version: 6.00 Build 0)  -->
<svg version="1.1" id="Layer_1" xmlns="http://www.w3.org/2000/svg" xmlns:xlink="http://www.w3.org/1999/xlink" x="0px" y="0px"
	 viewBox="0 0 2154.2 504.8" style="enable-background:new 0 0 2154.2 504.8;" xml:space="preserve">
<style type="text/css">
	.st0{fill:#FFFFFF;}
	.st1{fill:#DA0404;}
</style>
<g id="Groupe_1596">
	<path id="Tracé_2551" class="st0" d="M601.8,205.5V97h33.4c8.9-0.2,17.8,2.1,25.6,6.4c7.5,4.3,13.6,10.6,17.6,18.3
		c4.3,8.3,6.5,17.6,6.3,27v5c0.2,9.3-2,18.6-6.2,26.9c-4,7.6-10,14-17.5,18.2c-7.8,4.4-16.6,6.6-25.5,6.6H601.8z M624.1,115.1v72.4
		h10.8c8.7,0,15.4-2.9,20-8.6s7-13.9,7.1-24.5v-5.7c0-11-2.3-19.4-6.8-25.1c-4.6-5.7-11.2-8.5-20-8.5L624.1,115.1z"/>
	<path id="Tracé_2552" class="st0" d="M724.6,205.5h-22.3V97h22.3V205.5z"/>
	<path id="Tracé_2553" class="st0" d="M785.5,165.8h-17.8v39.7h-22.3V97h40.3c12.8,0,22.7,2.9,29.6,8.6s10.4,13.8,10.4,24.2
		c0.2,6.5-1.4,12.9-4.8,18.5c-3.6,5.3-8.7,9.4-14.6,11.8l23.5,44.3v1h-24L785.5,165.8z M767.7,147.7h18c4.7,0.3,9.4-1.2,13-4.3
		c3.2-3.1,4.9-7.4,4.6-11.8c0.3-4.4-1.3-8.8-4.3-12.1c-2.9-2.9-7.4-4.4-13.4-4.4h-17.9V147.7z"/>
	<path id="Tracé_2554" class="st0" d="M907.9,158.5H865v29h50.3v17.9h-72.7V97h72.5v18.1H865V141h42.9L907.9,158.5z"/>
	<path id="Tracé_2555" class="st0" d="M1013.6,169.3c-0.8,11.7-5.2,20.9-12.9,27.6s-18,10.1-30.7,10.1c-13.9,0-24.8-4.7-32.8-14
		s-11.9-22.2-12-38.5v-6.6c-0.2-9.5,1.7-18.9,5.5-27.6c3.3-7.5,8.8-13.9,15.8-18.3c7.2-4.3,15.4-6.6,23.8-6.4
		c12.5,0,22.6,3.3,30.2,10c7.6,6.7,12.1,16.1,13.2,28.2h-22.3c-0.5-7-2.5-12.1-5.8-15.2c-3.4-3.2-8.5-4.7-15.3-4.7
		c-7.5,0-13,2.7-16.7,8c-3.7,5.3-5.6,13.6-5.7,24.8v8.2c0,11.7,1.8,20.3,5.3,25.7s9.1,8.1,16.8,8.1c6.9,0,12-1.6,15.5-4.7
		c3.4-3.2,5.3-8,5.8-14.6L1013.6,169.3z"/>
	<path id="Tracé_2556" class="st0" d="M1107.7,115.1h-33.2v90.3h-22.3v-90.3h-32.8V97h88.3V115.1z"/>
	<path id="Tracé_2557" class="st0" d="M1144.2,205.5h-22.3V97h22.3V205.5z"/>
	<path id="Tracé_2558" class="st0" d="M1254,153.7c0.2,9.7-1.7,19.3-5.7,28.1c-3.5,7.7-9.1,14.1-16.2,18.6
		c-14.9,8.7-33.3,8.7-48.2,0.1c-7.2-4.4-12.8-10.9-16.4-18.5c-4-8.7-6-18.1-5.9-27.7v-5.4c-0.2-9.7,1.8-19.3,5.8-28.2
		c3.5-7.7,9.2-14.2,16.3-18.7c14.9-8.7,33.3-8.7,48.2,0c7.2,4.5,12.8,11,16.3,18.7c4,8.8,6,18.4,5.8,28.1L1254,153.7z M1231.4,148.8
		c0-11.4-2-20-6.1-25.9c-7-9.6-20.5-11.7-30.1-4.7c-1.8,1.3-3.3,2.8-4.6,4.6c-4.1,5.8-6.1,14.4-6.2,25.7v5.3c0,11.1,2,19.7,6.1,25.8
		c6.8,9.7,20.1,12.1,29.8,5.3c2-1.4,3.7-3.1,5.1-5c4-5.9,6-14.5,6.1-25.7L1231.4,148.8z"/>
	<path id="Tracé_2559" class="st0" d="M1358.4,205.5H1336l-43.5-71.3v71.3h-22.3V97h22.3l43.6,71.5V97h22.3L1358.4,205.5z"/>
	<path id="Tracé_2560" class="st0" d="M1501.6,191.8c-4.6,5.2-10.5,9.1-17.1,11.2c-7.8,2.7-16.1,4.1-24.4,4
		c-8.6,0.2-17.1-1.9-24.7-6.1c-7.1-4.2-12.8-10.4-16.4-17.9c-4-8.6-6.1-18-5.9-27.5v-7.4c-0.2-9.7,1.6-19.2,5.5-28.1
		c3.3-7.5,8.8-13.9,15.8-18.2c7.3-4.3,15.7-6.5,24.2-6.3c12.9,0,22.9,3.1,30.2,9.2s11.5,15.1,12.9,26.8h-21.7
		c-1-6.2-3.2-10.8-6.6-13.6c-4-3.1-9-4.6-14-4.3c-6.9-0.4-13.5,2.9-17.3,8.6c-4,5.7-6,14.2-6,25.5v6.9c0,11.4,2.2,20,6.5,25.8
		c4.3,5.8,10.7,8.7,19,8.7c8.4,0,14.4-1.8,17.9-5.4V165H1459v-16.5h42.7L1501.6,191.8z"/>
	<path id="Tracé_2561" class="st0" d="M1585,158.5h-42.9v29h50.3v17.9h-72.7V97h72.5v18.1h-50.2V141h42.9V158.5z"/>
	<path id="Tracé_2562" class="st0" d="M1693.7,205.5h-22.3l-43.5-71.3v71.3h-22.3V97h22.3l43.6,71.5V97h22.3L1693.7,205.5z"/>
	<path id="Tracé_2563" class="st0" d="M1778.4,158.5h-42.9v29h50.3v17.9h-72.7V97h72.5v18.1h-50.2V141h42.9V158.5z"/>
	<path id="Tracé_2564" class="st0" d="M1839.1,165.8h-17.8v39.7H1799V97h40.3c12.8,0,22.7,2.9,29.6,8.6
		c6.9,5.7,10.4,13.8,10.4,24.2c0.2,6.5-1.4,12.9-4.8,18.5c-3.6,5.3-8.7,9.4-14.6,11.8l23.5,44.3v1h-24L1839.1,165.8z M1821.3,147.7
		h18c4.7,0.3,9.4-1.2,13-4.3c3.2-3.1,4.9-7.4,4.6-11.8c0.2-4.4-1.3-8.8-4.4-12.1c-2.9-2.9-7.4-4.4-13.4-4.4h-18L1821.3,147.7z"/>
	<path id="Tracé_2565" class="st0" d="M1957.5,183.1h-39.2l-7.4,22.3h-23.8L1927.5,97h20.7l40.6,108.4h-23.7L1957.5,183.1z
		 M1924.4,165h27.1l-13.6-40.6L1924.4,165z"/>
	<path id="Tracé_2566" class="st0" d="M2021.3,187.5h47.4v17.9h-69.8V97h22.3L2021.3,187.5z"/>
	<path id="Tracé_2567" class="st0" d="M2146.7,158.5h-42.9v29h50.3v17.9h-72.7V97h72.5v18.1h-50.2V141h42.9L2146.7,158.5z"/>
	<path id="Tracé_2568" class="st0" d="M601.8,388.5V280h33.4c8.9-0.1,17.8,2.1,25.6,6.5c7.5,4.3,13.6,10.6,17.6,18.3
		c4.3,8.3,6.5,17.6,6.3,27v5c0.2,9.3-2,18.6-6.2,26.9c-4,7.6-10,14-17.5,18.2c-7.8,4.4-16.6,6.6-25.5,6.5L601.8,388.5z M624.1,298.1
		v72.4h10.8c8.7,0,15.4-2.9,20-8.6c4.6-5.7,7-13.9,7.1-24.5v-5.7c0-11-2.3-19.4-6.8-25.1s-11.2-8.5-20-8.5L624.1,298.1z"/>
	<path id="Tracé_2569" class="st0" d="M766.1,341.5h-42.9v29h50.3v18h-72.7V280h72.5v18.1h-50.2V324h42.9V341.5z"/>
	<path id="Tracé_2570" class="st0" d="M842.9,360c0.2-3.8-1.5-7.4-4.5-9.7c-5-3.2-10.4-5.6-16.1-7.1c-6.3-1.9-12.5-4.4-18.3-7.4
		c-12.3-6.7-18.5-15.6-18.5-26.9c-0.1-5.6,1.7-11.1,5-15.7c3.6-4.9,8.6-8.6,14.2-10.8c6.6-2.7,13.7-4,20.8-3.9
		c7.1-0.1,14.2,1.3,20.7,4.2c5.7,2.5,10.6,6.7,14.1,11.9c3.4,5.2,5.1,11.3,5,17.4H843c0.2-4.4-1.5-8.6-4.7-11.6
		c-3.7-3-8.4-4.4-13.2-4.1c-4.5-0.3-9,0.9-12.7,3.5c-2.9,2.1-4.6,5.5-4.5,9.1c0.1,3.7,2.1,7,5.3,8.9c4.9,3,10.2,5.2,15.7,6.7
		c12.7,3.8,22,8.6,27.8,14.2c5.7,5.5,8.9,13.2,8.7,21.1c0.3,8.7-3.6,16.9-10.6,22.1c-7.1,5.3-16.7,8-28.7,8
		c-7.8,0.1-15.6-1.4-22.8-4.6c-6.3-2.6-11.7-7-15.7-12.5c-3.6-5.5-5.5-11.9-5.4-18.5h22.4c0,12,7.1,18,21.5,18
		c4.4,0.3,8.7-0.9,12.4-3.2C841.4,367,843.1,363.6,842.9,360z"/>
	<path id="Tracé_2571" class="st0" d="M942.2,388.5h-22.3V280h22.3L942.2,388.5z"/>
	<path id="Tracé_2572" class="st0" d="M992,280l27.9,78.6l27.7-78.6h29.4v108.5h-22.4v-29.6l2.2-51.1l-29.3,80.8h-15.3L983,307.8
		l2.2,51.1v29.6h-22.4V280H992z"/>
	<path id="Tracé_2573" class="st0" d="M1118.8,350.3v38.2h-22.3V280h42.3c7.4-0.1,14.7,1.4,21.5,4.5c5.9,2.7,10.9,7.1,14.3,12.7
		c3.4,5.7,5.1,12.1,5,18.7c0,10.6-3.6,19-10.9,25.1s-17.3,9.2-30.2,9.2L1118.8,350.3z M1118.8,332.2h20c5.9,0,10.4-1.4,13.5-4.2
		c3.2-3.1,4.9-7.4,4.7-11.9c0.2-4.7-1.5-9.4-4.7-12.9c-3.4-3.4-8.2-5.3-13-5.1h-20.5V332.2z"/>
	<path id="Tracé_2574" class="st0" d="M1283.9,336.7c0.2,9.7-1.7,19.2-5.7,28.1c-3.5,7.7-9.1,14.2-16.2,18.6
		c-14.9,8.7-33.3,8.7-48.2,0.1c-7.2-4.4-12.9-10.9-16.4-18.5c-4-8.7-6-18.1-5.9-27.7v-5.4c-0.2-9.7,1.8-19.3,5.8-28.2
		c3.5-7.7,9.2-14.2,16.3-18.7c14.9-8.7,33.3-8.7,48.2,0c7.2,4.5,12.8,11,16.3,18.7c4,8.8,6,18.4,5.8,28.1L1283.9,336.7z
		 M1261.2,331.8c0-11.4-2-20-6.1-25.9c-7-9.6-20.5-11.7-30.1-4.7c-1.8,1.3-3.3,2.8-4.6,4.6c-4.1,5.8-6.1,14.4-6.2,25.7v5.3
		c0,11.1,2,19.7,6.1,25.8c6.8,9.7,20.1,12.1,29.8,5.3c2-1.4,3.7-3,5.1-5c4-5.9,6-14.5,6.1-25.7L1261.2,331.8z"/>
	<path id="Tracé_2575" class="st0" d="M1375.4,298.1h-33.2v90.3h-22.3v-90.3h-32.8V280h88.3L1375.4,298.1z"/>
	<path id="Tracé_2576" class="st0" d="M1443.2,360c0.2-3.8-1.5-7.4-4.5-9.7c-5-3.2-10.4-5.6-16.1-7.1c-6.3-1.9-12.5-4.4-18.4-7.4
		c-12.3-6.7-18.5-15.6-18.5-26.9c-0.1-5.6,1.7-11.1,5-15.7c3.6-4.9,8.6-8.6,14.2-10.8c6.6-2.7,13.7-4,20.8-3.9
		c7.1-0.1,14.2,1.3,20.7,4.2c5.7,2.5,10.6,6.7,14.1,11.9c3.4,5.2,5.1,11.3,5,17.4h-22.3c0.3-4.4-1.5-8.6-4.7-11.6
		c-3.7-3-8.4-4.4-13.2-4.1c-4.5-0.3-9,0.9-12.7,3.5c-2.9,2.1-4.6,5.5-4.5,9.1c0.1,3.7,2.1,7.1,5.3,8.9c4.9,3,10.2,5.2,15.7,6.7
		c12.7,3.8,22,8.6,27.8,14.2c5.8,5.5,8.9,13.2,8.7,21.1c0.4,8.7-3.6,16.9-10.6,22.1c-7.1,5.3-16.7,8-28.7,8
		c-7.8,0.1-15.6-1.4-22.8-4.6c-6.3-2.6-11.7-7-15.7-12.5c-3.6-5.5-5.5-11.9-5.4-18.5h22.4c0,12,7.2,18,21.4,18
		c4.4,0.3,8.7-0.9,12.4-3.2C1441.7,367,1443.3,363.6,1443.2,360z"/>
</g>
<g id="Groupe_1598">
	<g id="CONTOUR">
		<path id="Tracé_2577" class="st0" d="M0,239.6c1.5-26.8,7.1-53.3,16.7-78.4C48.2,78.9,123.7,17.1,210.3,3.5
			c77.6-12.1,146.9,7,206.6,58c47.8,40.8,76.4,93.1,84.9,155.5c10.2,75.3-9.5,142.6-59,200.4c-40,46.6-91.1,74.5-151.8,84.3
			c-7.7,1.2-15.5,1.7-23.2,2.6c-0.9,0.1-1.8,0.3-2.7,0.6h-25.9c-0.9-0.2-1.8-0.5-2.7-0.6c-8.8-1-17.6-1.7-26.3-3.1
			c-86.6-14-161.4-74.9-193.2-157C7.2,318.8,1.5,292,0,264.9V239.6z M8.7,252.1C8.6,386.5,117.2,495.5,251.6,495.8
			s243.6-108.3,244-242.7v-0.5C495.8,118.3,387.1,9.1,252.7,8.9h-0.4C117.9,8.8,8.8,117.6,8.7,252V252.1L8.7,252.1z"/>
		<path id="Tracé_2578" class="st0" d="M252.1,55.3c109.4-0.6,198.5,87.5,199.2,196.9s-87.5,198.6-196.9,199.2h-0.6
			c-109.1,0.3-198-87.6-198.7-196.8C54.3,145.2,142.4,56,251.8,55.3H252.1z M253.3,64.1C148.9,64,64.1,148.6,63.9,253v0.1
			c-0.1,104.4,84.4,189.2,188.9,189.3h0.2c104.4,0.2,189.2-84.4,189.4-188.8v-0.2c0.1-104.5-84.5-189.2-189-189.3L253.3,64.1
			L253.3,64.1z"/>
	</g>
	<g id="DGI">
		<path id="Tracé_2579" class="st1" d="M194.5,160.9c-1.7-5.3-6-9.3-11.4-10.6c-3.5-1-7.1-1.9-10.7-2.5c-1.9-0.4-2.7-1.2-2.6-3.2
			c0.1-2.2,0.1-4.4,0-6.6c-0.1-1.9,0.6-2.7,2.6-2.5c0.6,0,1.3,0,1.9,0c28.2,0,56.4-0.3,84.6,0.1c13.1,0.3,26.2,1.3,39.2,3.1
			c15.5,1.7,30.5,6.8,43.9,14.9c16.1,10.4,28.8,25.3,36.4,42.9c20,44.3,21.4,89.3,3.7,134.5c-8.7,23.2-25.5,42.5-47.4,54.1
			c-13.2,7.1-27.8,9.4-42.4,9.7c-31.1,0.7-62.2,0.6-93.4,0.7c-8.5,0-17.1-0.1-25.6,0.1c-2.5,0-3.7-0.5-3.4-3.3
			c0.2-2.5-0.8-5.7,0.5-7.4c1-1.4,4.5-1,6.9-1.3c10.9-1.4,17.1-7.2,18.9-18c0.4-2,0.6-4.1,0.9-6.1c-6.1-1.8-12.1-3-17.7-5.2
			c-34.3-13.6-54.4-39.1-61.3-75.1c-3.9-19.4-2.2-39.6,4.9-58.1c12.3-31.6,36.3-50.1,68.2-59.4L194.5,160.9z M229.4,346.7
			c8.7-0.7,17.1-3,24.9-6.7c17.4-8.1,26.9-21.3,26.3-41c-0.4-13.3-5.6-20.2-18.4-23.6c-2.6-0.7-5.4-1-8-1.7c-0.8-0.2-1.9-1.1-2-1.8
			c-0.2-2.5-0.1-5-0.1-7.5h80.5c0.2,0.3,0.3,0.7,0.4,1.1c-0.1,7.9,1.8,7.3-6.9,8.8c-10,1.7-15.5,4.5-17.1,16.5
			c-0.4,2.9-0.6,5.8-0.6,8.8c-0.1,17.5,0,34.9,0,52.4v4.2c-2.6-0.2-5.2-0.2-7.8,0.1c-4.9,0.8-7.7-1.1-9.3-5.8
			c-1.9-4.7-4-9.2-6.3-13.6c-15.2,13.4-34.3,21.6-54.4,23.6c0.5,9.1,4.8,14.5,13.4,16.9c16.5,4.7,33.1,3.9,49.6-0.1
			c11.2-2.7,21.6-8.1,30.2-15.8c14.5-12.8,22.4-29.5,27.4-47.7c4.6-18.3,6.6-37.1,5.7-55.9c-0.3-18.2-3.6-36.3-9.6-53.5
			c-7.9-22.3-22.6-38.2-45.2-46.5c-14.2-5.2-29.3-7.2-44.3-5.9c-6.6,0.3-13.1,2.1-19,5.2c-1.8,1.2-3.5,2.4-5.2,3.8
			c14.4,3.6,27.5,7.9,39.1,16.5c1.6-4.1,3.2-7.7,4.5-11.3c0.7-2.1,1.8-3.2,4.1-2.8c0.9,0.1,1.9,0.1,2.8,0c2.7-0.4,3.8,0.7,4.6,3.3
			c5.3,18.1,10.7,36.1,16.1,54.1c0.3,0.9,0.4,2,0.7,3.1c-3.5,1-6.5,2-9.7,2.6c-1.2,0.1-2.4-0.5-3.2-1.4c-2.7-3.5-5-7.3-7.8-10.7
			c-9.8-11.9-20.3-23.1-33.3-31.6c-6.3-4-13.3-6.8-20.7-8C228.9,179.1,228,339.5,229.4,346.7L229.4,346.7z M197.2,176
			c-9.9,2.9-18.5,9.1-24.5,17.5c-23,33-26.3,68.9-14.3,106.5c5.5,18.1,18.3,33.1,35.5,41.2c1.1,0.5,2.2,1,3.4,1.5L197.2,176z"/>
		<path id="Tracé_2580" class="st1" d="M229.9,108.9c-0.2,9.6-8.1,17.2-17.7,17c-9.6-0.2-17.2-8.1-17-17.7c0.2-9.5,8-17.1,17.5-17
			C222.3,91.4,230,99.3,229.9,108.9z"/>
	</g>
	<g id="TEXT_DGI">
		<path id="Tracé_2581" class="st0" d="M258.9,471c-1.3,5.5-2.6,10.9-3.8,16.4c-0.1,1.6-1.4,2.8-3,2.8c0,0,0,0,0,0h-0.4
			c-2.2,0-3.2-0.7-3.6-2.9c-0.9-5.5-2.3-10.9-4-16.2v18.6h-5.2V463c2.3-0.1,4.6-0.1,6.9,0.1c0.7,0.1,1.5,1.3,1.7,2.1
			c1.2,5.1,2.3,10.2,3.5,15.4c0.1,0.7,0.5,1.3,1.1,1.7c1-4.3,2-8.7,3.1-13c1.7-7,1.9-7.1,9.4-5.8v26.4h-5.2V471H258.9z"/>
		<path id="Tracé_2582" class="st0" d="M95.1,428.6l17.4-20.8c3.8,3.5,7.6,6.8,11.2,10.1c0.3,0.3,0.5,0.7,0.7,1
			c2.5,4.6,0.7,10.7-4.7,15.6c-4.9,4.4-10.2,5.4-14.6,2.2C101.7,434.4,98.6,431.5,95.1,428.6z M102.5,428.6c3,2.1,4.9,5.8,9.3,4.3
			c3.6-1.2,8-6.4,8.1-9.8c0-4.2-3.7-5.4-6.2-7.8L102.5,428.6L102.5,428.6z"/>
		<path id="Tracé_2583" class="st0" d="M284.1,37.9l-5.7-0.8c0.1-1.5,0.3-2.8,0.4-4.1c0.5-0.1,1-0.2,1.5-0.2c3,0.3,6,0.7,9.5,1.1
			c-0.5,4.7-1,9.2-1.5,13.8c-2.2,0.3-4.1,0.7-4.1-1.7c-3.1,0.6-6.2,1-9.3,1.2c-1.7-0.2-3.3-0.8-4.6-1.8c-5.8-3.8-7-13.8-2.5-20.5
			c4.3-5.6,12.2-6.9,18-2.9c2.6,1.7,4.2,4.6,4.2,7.7c-2.5,0.1-4.7,0.8-6.3-2.2c-1.8-3-5.7-3.9-8.7-2.1c-0.5,0.3-0.9,0.7-1.3,1.1
			c-3,3.5-3.7,8.4-1.9,12.7c1.3,2.5,4,4,6.8,3.6C281.4,42.5,283.6,40.5,284.1,37.9z"/>
		<path id="Tracé_2584" class="st0" d="M325.5,450.3c7.5,0,13.3,6.8,13.3,15.8c-0.1,7.1-6,12.7-13.1,12.6h-0.3
			c-7.4,0-13.2-6.9-13.4-15.8C312,455.8,317.9,450.4,325.5,450.3z M332.4,469.5c0.8-2.2,0.8-4.6-0.1-6.7c-0.7-1.7-1.5-3.3-2.4-4.9
			c-1.6-2.4-4.6-3.4-7.3-2.2c-2.9,0.6-4.9,3.3-4.6,6.3c0.5,3.2,1.5,6.2,3.1,9c1.6,2.6,4.8,3.5,7.5,2.2
			C330.4,472.6,331.8,471.2,332.4,469.5L332.4,469.5z"/>
		<path id="Tracé_2585" class="st0" d="M414.7,121.4l-4.1-4.5c1.5-1.6,2.8-3.2,4.3-4.6c1.6-1,2.1-3.1,1.1-4.8
			c-0.2-0.4-0.5-0.7-0.8-0.9l-4-4.2l-7.5,6.8l-3.8-4l19.5-18c3.5,3.8,6.8,7.4,10,11.2c2,2.2,2.2,5.5,0.7,8c-1.3,2.7-4.1,4.3-7,4
			C420.1,114.3,417.5,117.8,414.7,121.4z M414.7,99.4c1.8,1.9,3.4,3.6,5.1,5.3c1,1.2,2.8,1.4,4.1,0.4c0.1-0.1,0.2-0.2,0.4-0.3
			c1.4-0.9,1.7-2.8,0.8-4.2c-0.1-0.1-0.2-0.2-0.2-0.3c-1.5-1.9-3.3-3.7-5-5.7L414.7,99.4z"/>
		<path id="Tracé_2586" class="st0" d="M207.2,32.9c1,5.5,2,11.1,3,16.9l-5.1,1c-1.6-8.7-3.1-17.1-4.7-25.4
			c4.6-2.3,5.3-2.1,8.4,1.5c3.2,4,6.8,7.8,10.5,11.3c-0.9-5.3-1.9-10.6-2.9-16.2l5.1-1l4.7,25.6c-2.6,1.8-6.1,1.3-8-1.3c0,0,0,0,0,0
			c-0.1-0.2-0.3-0.4-0.4-0.6c-3.1-4.2-6.7-8-10-12L207.2,32.9z"/>
		<path id="Tracé_2587" class="st0" d="M51.5,163c4.9-2.8,8.4,1.9,13,1.3c-0.3,1-0.6,1.7-0.8,2.5c-0.7,3-2.4,3.6-5.1,2.3
			c-0.7-0.3-1.4-0.5-2.1-0.8c-2.8-1.3-4.6-0.5-5.6,2.4c-0.6,1.6-1.2,3.1-2,4.9l9.3,4.1c-0.7,1.7-1.2,3.2-2,5.1l-24.5-10.1
			c2.1-4.9,3.8-9.5,6-13.9c1.2-2.6,3.9-4.2,6.7-3.9C48,157,50.9,159.5,51.5,163z M44.6,174c1-2.5,2-4.6,2.7-6.7
			c0.8-1.5,0.1-3.4-1.4-4.1c-0.2-0.1-0.3-0.1-0.5-0.2c-1.5-0.8-3.4-0.2-4.2,1.4c-0.1,0.1-0.1,0.3-0.2,0.4c-1,2.1-1.8,4.2-2.8,6.6
			L44.6,174z"/>
		<path id="Tracé_2588" class="st0" d="M358,73c-3.8-0.9-5.6-2.7-5.4-6.7c0.1-5.3-0.4-10.6-1.4-15.8c-2.6,5-5.1,9.9-7.9,15.2
			l-4.7-2.3l11.8-23.2c5.4,1.6,5.5,1.7,5.6,6.6c0.1,5.2,0.6,10.4,1.3,15.5c2.5-4.9,5-9.7,7.7-15l4.7,2.4
			C365.8,57.5,361.9,65.2,358,73z"/>
		<path id="Tracé_2589" class="st0" d="M18.4,240.9c0.5-4.7,0.7-9,1.4-13.2c0.4-4.1,3.7-7.2,7.8-7.5c3.7-0.3,7.5,0,11.1,1.1
			c5.6,1.8,7.6,5.6,7,11.5c-0.3,3.4-0.7,6.9-1.1,10.7L18.4,240.9z M40.4,237.6c0.4-3.9,2-7.5-1.8-10.1c-3-2.2-9.8-2.7-12.3-0.8
			c-3.2,2.4-2.2,5.9-2.6,9.3L40.4,237.6z"/>
		<path id="Tracé_2590" class="st0" d="M173.2,33.3c7.3,0,13.2,6.9,13.2,15.6c-0.2,7-6,12.5-13,12.3c0,0,0,0,0,0h-0.3
			c-7.2,0-13-7-13-15.7c0.2-6.9,6-12.3,12.9-12.1H173.2z M180.7,51.3c0.5-1.3,0.5-2.8-0.1-4.1c-0.9-2.3-2-4.5-3.3-6.5
			c-1.6-2.4-4.8-3.2-7.3-1.9c-2.9,0.8-4.7,3.6-4.2,6.6c0.6,3,1.8,5.9,3.5,8.5c1.6,2.4,4.8,3.2,7.3,1.8
			C178.5,54.9,180,53.3,180.7,51.3L180.7,51.3z"/>
		<path id="Tracé_2591" class="st0" d="M126.2,452.6l13.7-23.2l17.1,10.1l-2.4,4.2l-12.2-7.1l-2.7,4.6l11.1,6.6
			c-0.9,1.5-1.6,2.7-2.5,4.2l-11.2-6.5l-3.5,5.7l12.7,7.6l-2.5,4.2L126.2,452.6z"/>
		<path id="Tracé_2592" class="st0" d="M390.8,421.9c-2,1.4-3.3,3.8-6.5,2c-2-1.1-6.2,1.7-6.6,4.1c-0.4,1.4,0.4,2.8,1.8,3.2
			c0.6,0.2,1.3,0.1,1.9-0.2c2.6-0.9,5-2.1,7.6-3.1c4.2-1.6,6.8-1,9.1,1.9c2.6,2.9,2.6,7.3,0,10.2c-2.4,2.6-5.3,4.6-8.5,6.1
			c-3.3,1.5-6.5,0.2-9.1-2.8c1.9-1.8,3.1-4.1,6.5-2.2c2.2,1.3,7.3-2.3,7.7-5c0.4-2.3-1.4-3.8-3.8-3s-4.8,2-7.3,3
			c-4.5,1.8-7.4,1-9.7-2.3c-2.3-3.2-1.9-7.6,1-10.4c2.3-2.9,5.8-4.7,9.5-4.9C386.9,418.5,389.3,419.7,390.8,421.9z"/>
		<path id="Tracé_2593" class="st0" d="M160.7,462.2c2.5,0.8,4.9,0.7,5.1,4.2c0.1,2.7,5.6,5.1,8.2,4.2c1.3-0.3,2.2-1.7,1.9-3
			c-0.1-0.6-0.5-1.1-0.9-1.4c-1.9-1.6-4-3.1-6.1-4.5c-4.4-3.2-5.5-6.2-3.6-10.1s5.7-5.5,10.7-4.1c6.9,1.9,10,6.4,8.3,12.3
			c-2.2-0.7-4.8-0.4-5.1-4c-0.2-2.5-4.8-4.5-7.2-3.7c-1.4,0.4-2.2,1.8-1.9,3.1c0.2,0.6,0.6,1.2,1.2,1.6c2,1.6,4.3,3,6.4,4.6
			c4,2.9,4.9,5.7,3.4,9.4c-1.4,3.9-5.6,6-9.5,4.8c-3-0.8-5.9-2.1-8.5-3.9C160,469.5,159.4,466.2,160.7,462.2z"/>
		<path id="Tracé_2594" class="st0" d="M71.1,142.8l7.9-12.2l4.1,2.5l-10.8,17l-22.3-14.3c3.5-5.5,6.9-10.8,10.5-16.4l4.1,2.5
			l-7.4,11.7l4.4,2.9l7-10.7l4,2.5l-6.8,10.8L71.1,142.8z"/>
		<path id="Tracé_2595" class="st0" d="M403.6,73l-3,3.8l-11-8.3c-1.1,1.3-2.1,2.6-3.3,4.1l10.1,7.8l-2.8,3.8l-10.2-7.6l-4,5.2
			l11.5,8.9l-2.9,3.9l-16-12.2l16-21L403.6,73z"/>
		<path id="Tracé_2596" class="st0" d="M480.3,213.3c-1.1-4.6-2.1-8.9-3.2-13.5l-5.1,1c0.9,4.2,1.7,8.2,2.6,12.5l-4.6,1
			c-1-4.2-1.9-8.1-2.8-12.4l-6.5,1.4c1,4.7,2,9.3,3.1,14.1l-4.6,1.1l-4.4-19.6l25.8-5.8c1.4,6.3,2.8,12.3,4.3,18.7L480.3,213.3z"/>
		<path id="Tracé_2597" class="st0" d="M324,57.5l-19.2-5.8l7.6-25.3L331,32c-0.5,1.6-0.9,2.9-1.4,4.6l-13.2-3.9
			c-0.5,1.7-1.1,3.2-1.7,5l12.2,3.8l-1.4,4.5l-12.1-3.6c-0.7,2.2-1.2,4-1.9,6.2l13.8,4.3C324.8,54.3,324.5,55.7,324,57.5z"/>
		<path id="Tracé_2598" class="st0" d="M436.4,153.1c-0.7-1.1-1.2-2-1.9-2.8c-1.1-0.9-1.2-2.4-0.3-3.5c0.2-0.2,0.4-0.4,0.6-0.5
			c2.2-1.7,1.9-3.4,0.3-5.3c-0.6-0.7-1.1-1.5-1.5-2.4c-0.4-1.8-2.2-2.9-4.1-2.5c-0.3,0.1-0.6,0.2-0.9,0.4c-3.7,1.5-3.7-2.2-5.4-4.1
			c0.7-0.3,1.4-0.6,2.2-0.8c7.6-1.7,15.2-3.3,22.7-5.2c2.7-0.7,3.2,1.1,4.2,2.5c1.2,1.1,1.4,3,0.3,4.2c0,0,0,0,0,0
			c0,0-0.1,0.1-0.1,0.1c-5.1,6.2-10,12.6-15.1,19C437.1,152.6,436.8,152.9,436.4,153.1z M436.5,134.5l3.6,5.5l6-7.2l-0.4-0.6
			L436.5,134.5z"/>
		<path id="Tracé_2599" class="st0" d="M286.5,478c0.5,3.3,1,6.2,1.4,9.5l-5.6,0.9c-1.5-8.8-2.9-17.5-4.5-26.8
			c5.3-0.6,10.3-1.5,15.4-1.7c3.6-0.1,6.2,3.5,6.6,7.6c0.7,4.1-2,8.1-6.1,9.1C291.5,477.2,289.2,477.5,286.5,478z M285.7,473.4
			c3-1.1,6.6,0.1,8.1-3.3c0.4-1.5,0.1-3-0.9-4.2c-2.5-2.2-5.5-0.6-8.6,0C284.8,468.4,285.2,470.7,285.7,473.4L285.7,473.4z"/>
		<path id="Tracé_2600" class="st0" d="M101.3,98.1c3.3,3.5,3.8,8.8,1.1,12.8c-2.6,4.7-8.1,7-13.2,5.4c-5.1-1.6-9.2-5.4-11.2-10.4
			c-1.9-5-0.2-10.7,4.3-13.7c3.6-3.1,8.9-3.2,12.6-0.2c-1.6,2.2-2.8,4.2-6.3,3.3s-6.7,3.7-5.7,7.5c1.6,4.2,5.1,7.3,9.4,8.5
			c3.7,0.5,7.8-3.2,6.5-6.5C97.3,101.3,99.1,99.9,101.3,98.1z"/>
		<path id="Tracé_2601" class="st0" d="M360.5,433.6l2.3,4.3l-7,3.9L366,461l-4.9,2.9l-10.4-19.4l-7.1,3.6l-2.4-4.2L360.5,433.6z"
			/>
		<path id="Tracé_2602" class="st0" d="M128.9,86.6l-4.4,3.4l-13.2-17.1l-6.3,4.7l-3-3.8l17.1-13.1l3,3.7l-6.2,5L128.9,86.6z"/>
		<path id="Tracé_2603" class="st0" d="M467.5,156.9c0.8,1.9,1.4,3.4,2.1,5.2l-19.8,8.2l4.9,12l-4.5,1.9
			c-2.4-5.8-4.7-11.4-7.1-17.3L467.5,156.9z"/>
		<path id="Tracé_2604" class="st0" d="M219.9,460.4l5.7,0.7c-1.3,8.9-2.6,17.5-3.9,26.6l-5.7-0.8
			C217.2,478,218.5,469.4,219.9,460.4z"/>
		<path id="Tracé_2605" class="st0" d="M24.5,199.9c0.5-1.9,0.9-3.4,1.4-5.4l25.6,6.4c-0.5,1.9-0.9,3.6-1.4,5.5L24.5,199.9z"/>
		<path id="Tracé_2606" class="st0" d="M134.4,51.3l4.9-2.8l13.1,22.9l-4.9,2.9L134.4,51.3z"/>
	</g>
</g>
</svg>
